<svg width="128" height="240" viewBox="0 0 128 240" fill="none" xmlns="http://www.w3.org/2000/svg">
<path d="M114.85 93.773C114.383 92.2936 113.033 90.2801 109.221 89.1443C106.155 88.2322 104.317 88.8467 103.217 89.7512C103.13 76.03 103.172 64.5356 103.556 57.3236C104.016 36.2256 103.421 28.6394 99.2048 22.8826C99.2036 22.8801 99.201 22.8775 99.1998 22.8749C98.8894 22.4521 98.5603 22.0394 98.2112 21.6318C98.21 21.6318 98.21 21.6318 98.21 21.6318C97.9472 21.3252 97.6769 21.0211 97.3903 20.7196C97.1838 20.4999 96.9473 20.2891 96.697 20.0821C96.6182 20.0182 96.5318 19.9556 96.4492 19.893C96.264 19.75 96.0701 19.6107 95.8649 19.474C95.7635 19.4076 95.6609 19.3411 95.5558 19.276C95.338 19.1418 95.109 19.009 94.8725 18.8799C94.7724 18.8263 94.6773 18.7713 94.5747 18.719C94.2543 18.5529 93.9214 18.3919 93.571 18.236C93.5448 18.2245 93.5223 18.2118 93.496 18.2015C93.0993 18.0252 92.6813 17.8566 92.2483 17.6931C92.1945 17.6726 92.137 17.6535 92.0819 17.633C91.7077 17.495 91.3211 17.3609 90.9244 17.2306C90.828 17.1986 90.7304 17.168 90.6328 17.1373C90.2524 17.0159 89.8632 16.8984 89.464 16.7847C89.3764 16.7604 89.2888 16.7349 89.1999 16.7093C88.7194 16.5765 88.2301 16.4461 87.7271 16.3222H87.7258C77.995 13.9293 64.246 13.3697 57.1694 13.3697C50.0978 13.3697 36.3613 13.928 26.6317 16.3171C26.6304 16.3184 26.6279 16.3184 26.6254 16.3197C26.1249 16.4423 25.6368 16.5713 25.1588 16.7042C25.065 16.731 24.9724 16.7579 24.8798 16.7834C24.4881 16.8959 24.1052 17.0108 23.7322 17.1297C23.6259 17.1629 23.5207 17.1961 23.4169 17.2306C23.029 17.3571 22.6535 17.4886 22.2894 17.6228C22.2256 17.6458 22.158 17.6688 22.0954 17.6931C21.6637 17.8553 21.247 18.0239 20.8503 18.199C20.8265 18.2079 20.8065 18.2194 20.784 18.2296C20.4298 18.3868 20.0932 18.549 19.7703 18.7164C19.6677 18.7701 19.5714 18.825 19.4725 18.8787C19.2347 19.0077 19.0057 19.1405 18.788 19.276C18.6829 19.3398 18.5802 19.405 18.4801 19.4714C18.2724 19.6094 18.0784 19.75 17.892 19.893C17.8106 19.9556 17.7243 20.017 17.6455 20.0821C17.3952 20.2878 17.1612 20.4986 16.9547 20.7171C16.9534 20.7171 16.9522 20.7184 16.9522 20.7196C16.9509 20.7209 16.9497 20.7222 16.9484 20.7235C16.2902 21.4172 15.6995 22.102 15.1627 22.8047V22.8059C14.8586 23.2045 14.5733 23.6095 14.3055 24.0248C10.8367 29.4136 10.3398 36.7022 10.8004 57.3236C11.1845 64.4704 11.2321 75.8217 11.1495 89.3794C10.0145 88.7036 8.29759 88.3663 5.68219 89.1443C1.87171 90.2801 0.521429 92.2936 0.0546609 93.773C-0.209382 94.6111 0.526461 95.4339 1.33236 95.2256C4.59598 94.385 7.86083 93.5443 11.127 92.7037C11.0181 107.627 10.7778 124.91 10.6652 142.117C10.3348 142.216 10.0883 142.527 10.0871 142.911C10.0833 144.581 10.0796 146.251 10.0733 147.921C10.0708 148.299 10.3073 148.607 10.6289 148.713C10.6214 150.376 10.6139 152.037 10.6101 153.692C10.2623 153.778 9.99572 154.097 9.99197 154.495C9.97945 156.165 9.96443 157.834 9.94816 159.503C9.94315 159.921 10.231 160.252 10.6039 160.318C10.6227 195.779 11.61 226.997 15.9686 231.044C17.3714 232.239 18.9907 233.261 20.7426 234.157V234.159C20.7477 234.161 20.7539 234.164 20.7589 234.167C21.6036 234.598 22.4821 234.997 23.3881 235.367C23.4569 235.395 23.527 235.421 23.5958 235.449C24.4505 235.793 25.3265 236.111 26.225 236.405C26.3176 236.435 26.4114 236.465 26.5041 236.494C27.4013 236.782 28.3135 237.046 29.2433 237.289C29.2496 237.29 29.2559 237.293 29.2634 237.294C29.3335 237.312 29.4035 237.329 29.4736 237.347C30.4609 237.601 31.4595 237.832 32.4707 238.039C32.4719 238.039 32.4744 238.04 32.4757 238.04C41.4169 239.868 51.0238 240 57.1694 240C64.0132 240 75.1443 239.838 84.8726 237.346C84.9465 237.329 85.0178 237.309 85.0904 237.29C86.0239 237.048 86.9412 236.781 87.8422 236.493C87.9323 236.464 88.0224 236.435 88.1112 236.406C89.0135 236.111 89.8945 235.791 90.7529 235.445C90.818 235.42 90.8843 235.395 90.9494 235.369C91.8591 234.997 92.7414 234.597 93.5898 234.162C93.5923 234.161 93.5961 234.16 93.5986 234.159C95.3505 233.261 96.9711 232.24 98.3739 231.044C102.739 226.996 103.734 195.779 103.757 160.318C104.132 160.253 104.419 159.921 104.416 159.503C104.399 157.834 104.384 156.165 104.372 154.495C104.368 154.097 104.102 153.778 103.752 153.692C103.747 152.037 103.741 150.376 103.735 148.713C104.056 148.608 104.293 148.3 104.292 147.921C104.285 146.251 104.28 144.581 104.277 142.911C104.277 142.527 104.029 142.215 103.699 142.115C103.586 124.857 103.346 107.52 103.236 92.5644C106.683 93.4511 110.128 94.339 113.571 95.2256C114.378 95.4339 115.114 94.6111 114.85 93.773Z" fill="black" fill-opacity="0.2"/>
<path d="M116.653 43.9539C117.172 20.1334 116.349 13.5347 110.486 7.34995C104.656 1.16518 80.4913 2.36778e-05 70.2649 2.36778e-05C60.0386 2.36778e-05 35.8755 1.16518 30.0478 7.34995C24.1838 13.5347 23.3378 18.9287 23.8959 43.9539C25.7442 78.234 19.8177 209.086 29.0642 217.674C39.1767 226.285 59.772 226.63 70.2649 226.63C80.7591 226.63 101.353 226.287 111.469 217.674C120.73 209.086 114.824 78.234 116.653 43.9539Z" fill="#9E9496"/>
<path d="M112.566 49.3555C112.566 30.7386 112.095 21.9054 106.749 16.2508C101.436 10.5975 79.5492 8.28127 70.2676 8.28127C60.986 8.28127 39.0992 10.5975 33.7896 16.2508C28.4412 21.9054 27.9832 31.0133 27.9832 49.3555C27.9832 54.6868 28.7965 62.7101 30.4033 70.6247C33.3203 77.3396 34.9271 88.4431 36.0146 99.2565C34.8157 101.018 34.1174 104.497 34.1224 108.178C32.5482 113.205 33.7045 130.354 34.0586 136.909C34.0786 137.268 34.0286 138.408 34.0474 138.766C34.0649 138.767 30.4809 167.633 33.7157 181.432L34.7945 188.58C33.956 193.779 30.9477 199.362 31.1804 200.893C31.1804 200.893 31.5533 203.19 32.8398 204.293C42.0625 212.165 60.7433 212.48 70.2676 212.48C79.7907 212.48 98.4727 212.164 107.698 204.293C108.986 203.19 109.365 200.893 109.365 200.893C109.61 199.277 106.575 193.86 105.755 188.58L106.834 181.432C108.429 169.969 106.49 138.767 106.508 138.766C106.527 138.408 106.477 137.268 106.497 136.909C106.852 130.354 108.008 113.205 106.434 108.178C106.439 104.497 105.741 101.018 104.541 99.2565C105.628 88.4431 107.234 77.3396 110.149 70.6247C111.755 62.7101 112.47 54.6868 112.566 49.3555Z" fill="#C2CDC3"/>
<path d="M83.3234 69.485C84.0342 69.3471 84.7462 69.2104 85.457 69.0724C83.7138 56.9392 81.9794 49.7975 80.2187 38.0387C80.101 37.2555 79.4428 36.6627 78.667 36.6627H61.8795C61.1024 36.6627 60.4442 37.2555 60.3266 38.0387C58.5696 49.7975 56.8364 56.9405 55.0958 69.0724C55.8078 69.2104 56.5186 69.3471 57.2294 69.485C58.253 57.7057 59.7509 50.5168 60.8096 39.4325C60.8872 38.611 61.5617 37.9709 62.3701 37.9709H78.0225C78.8309 37.9709 79.5041 38.6097 79.5842 39.4312C80.6566 50.5168 82.2985 57.7057 83.3234 69.485Z" fill="#9E9496"/>
<path d="M70.2751 58.0085C70.2901 58.0098 47.197 57.7045 30.4033 70.6246C32.3204 80.1682 34.1863 89.7117 36.0146 99.2565C36.0146 99.2565 45.2548 90.9918 70.2776 90.9918C95.3017 90.9918 104.541 99.2565 104.541 99.2565C106.37 89.7117 108.234 80.1682 110.149 70.6246C93.3545 57.7045 70.2614 58.0098 70.2751 58.0085Z" fill="#262A35"/>
<path d="M34.0586 136.909C34.1162 126.919 34.1362 117.063 34.1212 107.073C32.079 95.6831 29.9854 84.2935 27.818 72.9052C26.7756 85.1636 26.8594 115.486 26.9057 136.909C29.2896 136.909 31.6748 136.909 34.0586 136.909Z" fill="#262A35"/>
<path d="M26.9132 138.766C27.0183 161.174 27.2223 190.54 27.2261 190.54C29.401 187.504 31.5634 184.467 33.7157 181.432C33.8697 170.557 33.9811 149.643 34.0474 138.766C31.6697 138.766 29.2921 138.766 26.9132 138.766Z" fill="#262A35"/>
<path d="M106.497 136.909C106.44 126.919 106.42 117.063 106.437 107.073C108.478 95.6831 110.57 84.2935 112.736 72.9052C113.781 85.1636 113.698 115.486 113.651 136.909C111.266 136.909 108.882 136.909 106.497 136.909Z" fill="#353F4B"/>
<path d="M113.642 138.766C113.536 161.174 113.327 190.54 113.323 190.54C111.148 187.504 108.986 184.467 106.834 181.432C106.683 170.557 106.574 149.643 106.508 138.766C108.886 138.766 111.264 138.766 113.642 138.766Z" fill="#353F4B"/>
<path d="M105.754 188.58C97.19 190.221 43.3589 190.221 34.7944 188.58C34.8032 188.58 30.5534 196.032 31.1804 200.893C36.9718 203.364 49.3994 206.502 70.2713 206.502C91.142 206.503 103.572 203.364 109.365 200.893C109.993 196.032 105.746 188.58 105.754 188.58Z" fill="#262A35"/>
<path d="M104.541 99.2565C106.37 89.7117 108.235 80.1682 110.149 70.6246C93.3545 57.7045 70.2614 58.0098 70.2752 58.0085C70.2764 69.0021 70.2777 79.997 70.2777 90.9918C95.3017 90.9918 104.542 99.2565 104.541 99.2565Z" fill="#353F4B"/>
<path d="M105.754 188.58C105.465 188.636 105.151 188.685 104.822 188.729C104.735 188.741 104.622 188.752 104.528 188.764C104.334 188.788 104.146 188.812 103.94 188.833C98.0446 189.484 84.173 189.812 70.2738 189.812C70.2738 195.375 70.2726 200.939 70.2713 206.502C91.142 206.503 103.572 203.364 109.365 200.893C109.993 196.032 105.746 188.58 105.754 188.58Z" fill="#353F4B"/>
<path d="M70.2651 223.271C74.944 223.271 81.6177 223.198 88.4828 222.361C88.449 222.193 88.4152 222.026 88.3814 221.857C88.0849 220.381 86.7083 219.278 85.293 219.353C75.2882 219.881 65.2445 219.881 55.2384 219.353C53.8243 219.278 52.4465 220.381 52.15 221.857C52.1162 222.026 52.0824 222.193 52.0486 222.361C58.9137 223.198 65.5861 223.271 70.2651 223.271Z" fill="#C2CDC3"/>
<path d="M46.0982 223.778C46.1007 223.766 46.1032 223.753 46.1057 223.741C46.3397 222.744 45.7453 221.768 44.7805 221.532C41.9061 220.831 39.0591 220.008 36.2485 219.066C35.31 218.75 34.2814 219.258 33.9322 220.225C33.9285 220.237 33.9235 220.248 33.9197 220.261C33.8571 220.436 33.8509 220.613 33.8384 220.789C37.316 222.571 41.3655 223.81 45.5714 224.67C45.8129 224.425 46.0131 224.136 46.0982 223.778Z" fill="#DF2C3A"/>
<path d="M106.6 220.225C106.252 219.258 105.224 218.75 104.285 219.066C101.475 220.008 98.6265 220.83 95.7521 221.532C94.786 221.768 94.1928 222.744 94.4256 223.741C94.4281 223.753 94.4306 223.766 94.4344 223.778C94.5182 224.138 94.7184 224.425 94.96 224.67C99.1671 223.81 103.215 222.571 106.694 220.789C106.682 220.613 106.677 220.436 106.613 220.261C106.609 220.248 106.604 220.237 106.6 220.225Z" fill="#DF2C3A"/>
<path d="M25.0536 76.3661C24.9785 77.7561 24.901 79.1461 24.8234 80.5361C24.8046 80.8913 24.966 81.2324 25.2476 81.4278C25.5004 81.6029 25.7519 81.7792 26.0047 81.9542C26.2437 79.5971 26.4802 77.2399 26.7155 74.8828C26.32 75.1115 25.9233 75.3402 25.5279 75.5689C25.2513 75.7286 25.0724 76.0301 25.0536 76.3661Z" fill="#262A35"/>
<path d="M24.8421 79.1743C21.3695 80.0673 17.8981 80.9616 14.428 81.8559C13.6221 82.0641 12.8863 81.2414 13.1504 80.4033C13.6171 78.9226 14.9674 76.9104 18.7779 75.7746C22.6246 74.6299 24.5605 75.8819 25.4966 77.1033C26.0634 77.843 25.7056 78.952 24.8421 79.1743Z" fill="#9E9496"/>
<path d="M116.041 76.3661C116.117 77.7561 116.194 79.1461 116.271 80.5361C116.291 80.8913 116.13 81.2324 115.848 81.4278C115.595 81.6029 115.343 81.7792 115.09 81.9542C114.852 79.5971 114.614 77.2399 114.38 74.8828C114.776 75.1115 115.172 75.3402 115.568 75.5689C115.844 75.7286 116.023 76.0301 116.041 76.3661Z" fill="#262A35"/>
<path d="M116.252 79.1743C119.726 80.0673 123.198 80.9616 126.666 81.8559C127.474 82.0641 128.209 81.2414 127.945 80.4033C127.479 78.9226 126.128 76.9104 122.317 75.7746C118.47 74.6299 116.535 75.8819 115.599 77.1033C115.031 77.843 115.39 78.952 116.252 79.1743Z" fill="#9E9496"/>
<path d="M46.0982 223.778C46.1007 223.766 46.1032 223.753 46.1057 223.741C46.3385 222.744 45.7466 221.768 44.7805 221.532C44.0685 221.359 43.3627 221.154 42.6544 220.966C42.5568 221.952 42.4579 222.938 42.3591 223.924C43.4152 224.199 44.4877 224.448 45.5714 224.67C45.8129 224.425 46.0144 224.136 46.0982 223.778Z" fill="#F7980F"/>
<path d="M94.4256 223.741C94.4281 223.753 94.4306 223.766 94.4344 223.778C94.5182 224.138 94.7184 224.425 94.96 224.67C96.0437 224.448 97.1161 224.199 98.1723 223.924C98.0747 222.938 97.9758 221.952 97.8782 220.965C97.1699 221.154 96.4641 221.359 95.7521 221.532C94.786 221.768 94.1928 222.744 94.4256 223.741Z" fill="#F7980F"/>
<path d="M23.9674 135.392C23.9624 135.392 23.9574 135.392 23.9511 135.392C23.5169 135.392 23.1665 135.016 23.169 134.551C23.1753 132.881 23.1803 131.211 23.1828 129.542C23.184 129.078 23.5369 128.701 23.9711 128.701C23.9762 128.701 23.9811 128.701 23.9862 128.701C24.4204 128.701 24.772 129.078 24.7708 129.542C24.767 131.211 24.762 132.881 24.757 134.551C24.7545 135.016 24.4016 135.393 23.9674 135.392Z" fill="#262A35"/>
<path d="M23.8397 146.976C23.8347 146.976 23.8285 146.976 23.8235 146.976C23.388 146.976 23.0389 146.599 23.0439 146.134C23.0601 144.464 23.0751 142.794 23.0877 141.125C23.0914 140.66 23.4468 140.284 23.8823 140.284C23.8873 140.284 23.8923 140.284 23.8986 140.284C24.3328 140.284 24.6819 140.66 24.6794 141.125C24.6657 142.794 24.6519 144.464 24.6356 146.134C24.6319 146.599 24.2752 146.976 23.8397 146.976Z" fill="#262A35"/>
<path d="M116.605 135.392C116.599 135.392 116.594 135.392 116.589 135.392C116.155 135.392 115.802 135.016 115.799 134.551C115.793 132.881 115.789 131.211 115.786 129.542C115.784 129.078 116.136 128.701 116.57 128.701C116.575 128.701 116.58 128.701 116.585 128.701C117.019 128.701 117.372 129.078 117.374 129.542C117.376 131.211 117.381 132.881 117.387 134.551C117.39 135.016 117.04 135.393 116.605 135.392Z" fill="#262A35"/>
<path d="M116.73 146.976C116.725 146.976 116.72 146.976 116.715 146.976C116.28 146.976 115.923 146.599 115.918 146.134C115.903 144.464 115.89 142.794 115.877 141.125C115.873 140.66 116.222 140.284 116.658 140.284C116.663 140.284 116.668 140.284 116.673 140.284C117.108 140.284 117.464 140.66 117.468 141.125C117.48 142.794 117.495 144.464 117.511 146.134C117.515 146.599 117.166 146.976 116.73 146.976Z" fill="#262A35"/>
<path d="M89.9469 114.627H51.1476C50.194 106.53 50.4994 109.116 49.5446 101.018C63.3574 97.6915 77.7384 97.6915 91.55 101.018C90.5964 109.116 90.9017 106.53 89.9469 114.627Z" fill="#262A35"/>
<path d="M89.9469 114.627C90.9017 106.53 90.5964 109.116 91.5499 101.018C84.6448 99.355 77.5957 98.5233 70.5479 98.5233V114.627H89.9469Z" fill="#353F4B"/>
<path d="M29.2271 8.25303C30.531 8.85093 31.5922 10.1783 32.1365 11.921C31.9363 12.1228 31.7436 12.3119 31.5559 12.4908C32.4506 11.6361 33.478 10.5092 34.7069 9.37471C37.7665 6.54743 40.9338 4.71795 39.7287 2.94723C35.3889 4.01273 31.845 5.44234 30.048 7.34977C29.7614 7.65128 29.4898 7.95152 29.2271 8.25303Z" fill="#BFDBDB"/>
<path d="M31.5563 12.491C31.5224 12.5229 31.4897 12.5522 31.4557 12.5841C31.4897 12.5535 31.5224 12.5229 31.5563 12.491Z" fill="#EA8615"/>
<path d="M29.2269 8.25304C28.5424 9.03619 27.9367 9.82316 27.4012 10.6549C27.3924 10.7187 27.3824 10.7826 27.3761 10.8439C27.3574 11.0535 27.3499 11.2566 27.3586 11.4546C27.3624 11.5556 27.3611 11.6578 27.3724 11.7549C27.4024 12.0142 27.4612 12.2582 27.5438 12.4895C27.5689 12.5598 27.5976 12.6287 27.6277 12.6977C27.7378 12.9456 27.8692 13.1807 28.0481 13.3838C28.1758 13.5269 28.3047 13.6316 28.4348 13.7198C28.4711 13.7441 28.5074 13.7645 28.5449 13.7849C28.6488 13.8424 28.7539 13.8859 28.8615 13.9114C28.8916 13.9191 28.9216 13.9319 28.9529 13.937C29.088 13.9587 29.2257 13.96 29.3671 13.937C29.3946 13.9332 29.4234 13.9229 29.4509 13.9165C29.5686 13.891 29.6899 13.8514 29.8126 13.7977C29.8526 13.7811 29.8914 13.7632 29.9315 13.7441C30.0754 13.6738 30.2205 13.5908 30.3694 13.4886C30.377 13.4835 30.3845 13.4796 30.392 13.4758C30.5534 13.3633 30.7211 13.2318 30.8925 13.0887C30.9326 13.0542 30.9739 13.0184 31.0139 12.9826C31.1578 12.8587 31.3055 12.7258 31.4557 12.584C31.4895 12.5521 31.522 12.5227 31.5558 12.4908C31.7435 12.3119 31.9362 12.1228 32.1364 11.921C31.5921 10.1783 30.5309 8.85095 29.2269 8.25304Z" fill="#EA8615"/>
<path d="M105.846 9.37472C107.075 10.5092 108.103 11.6361 108.998 12.4908C108.809 12.3119 108.618 12.1228 108.416 11.921C108.958 10.1873 110.012 8.86369 111.306 8.26195C111.043 7.95533 110.773 7.65128 110.486 7.34977C108.69 5.44489 105.153 4.01785 100.822 2.95234C99.6239 4.72179 102.79 6.54998 105.846 9.37472Z" fill="#BFDBDB"/>
<path d="M111.306 8.26196C110.012 8.8637 108.958 10.1873 108.416 11.921C108.618 12.1228 108.809 12.3119 108.998 12.4908C109.032 12.5227 109.064 12.5521 109.097 12.584C109.248 12.7258 109.395 12.8587 109.539 12.9826C109.58 13.0184 109.621 13.0542 109.661 13.0887C109.833 13.2318 109.999 13.3633 110.162 13.4758C110.169 13.4796 110.176 13.4835 110.183 13.4886C110.333 13.5908 110.478 13.6738 110.621 13.7441C110.661 13.7632 110.701 13.7811 110.74 13.7977C110.863 13.8514 110.984 13.891 111.103 13.9165C111.13 13.9229 111.159 13.9332 111.187 13.937C111.327 13.96 111.465 13.9587 111.601 13.937C111.631 13.9319 111.661 13.9191 111.691 13.9114C111.799 13.8859 111.904 13.8424 112.009 13.7849C112.045 13.7645 112.083 13.7441 112.119 13.7198C112.249 13.6316 112.378 13.5269 112.504 13.3838C112.685 13.1807 112.815 12.9456 112.926 12.6977C112.956 12.6287 112.984 12.5598 113.009 12.4895C113.091 12.2582 113.15 12.0142 113.18 11.7549C113.191 11.6578 113.191 11.5556 113.194 11.4546C113.203 11.2566 113.196 11.0535 113.178 10.8439C113.176 10.835 113.174 10.8261 113.174 10.8171C112.628 9.91898 112.009 9.07961 111.306 8.26196Z" fill="#EA8615"/>
</svg>
